<?xml version="1.0" encoding="UTF-8"?>
<svg xmlns="http://www.w3.org/2000/svg" xmlns:xlink="http://www.w3.org/1999/xlink" width="24px" height="24px" viewBox="0 0 24 24" version="1.1">
<g id="surface1">
<path style=" stroke:none;fill-rule:nonzero;fill:rgb(0%,0%,0%);fill-opacity:1;" d="M 1.359375 0.484375 C 2.363281 0.777344 3.367188 1.097656 4.378906 1.445312 C 5.386719 1.789062 6.332031 2.265625 7.210938 2.867188 C 8.058594 3.609375 8.859375 4.394531 9.621094 5.222656 C 10.378906 6.054688 11.164062 6.855469 11.976562 7.632812 C 12.617188 7.011719 13.246094 6.375 13.867188 5.730469 C 14.488281 5.082031 15.109375 4.4375 15.730469 3.800781 C 16.613281 2.816406 17.671875 2.113281 18.917969 1.691406 C 20.160156 1.265625 21.382812 0.867188 22.59375 0.484375 C 22.28125 1.488281 21.96875 2.496094 21.648438 3.515625 C 21.328125 4.535156 20.875 5.492188 20.289062 6.390625 C 19.5625 7.253906 18.789062 8.078125 17.972656 8.863281 C 17.152344 9.648438 16.351562 10.453125 15.574219 11.28125 C 16.09375 11.871094 16.640625 12.449219 17.21875 13.019531 C 17.796875 13.585938 18.097656 14.304688 18.113281 15.167969 C 18.578125 14.734375 19.035156 14.292969 19.484375 13.832031 C 19.933594 13.375 20.382812 12.921875 20.832031 12.472656 C 21.160156 12.835938 21.539062 13.210938 21.972656 13.601562 C 22.402344 13.988281 22.507812 14.46875 22.28125 15.039062 C 22.023438 15.46875 21.71875 15.871094 21.363281 16.242188 C 21.007812 16.613281 20.675781 16.996094 20.367188 17.394531 C 20.917969 18 21.492188 18.578125 22.089844 19.128906 C 22.683594 19.679688 23.222656 20.285156 23.707031 20.941406 C 24.101562 21.578125 24.035156 22.214844 23.5 22.84375 C 22.964844 23.472656 22.351562 23.660156 21.660156 23.402344 C 20.9375 22.933594 20.289062 22.371094 19.71875 21.707031 C 19.148438 21.039062 18.546875 20.421875 17.90625 19.855469 C 17.527344 20.183594 17.15625 20.53125 16.792969 20.902344 C 16.429688 21.273438 16.015625 21.570312 15.550781 21.796875 C 15.03125 21.898438 14.605469 21.742188 14.269531 21.328125 C 13.933594 20.914062 13.582031 20.570312 13.21875 20.292969 C 13.652344 19.8125 14.089844 19.339844 14.539062 18.882812 C 14.988281 18.425781 15.4375 17.964844 15.886719 17.496094 C 15.023438 17.480469 14.292969 17.203125 13.699219 16.667969 C 13.101562 16.132812 12.527344 15.589844 11.976562 15.039062 C 11.425781 15.574219 10.851562 16.097656 10.253906 16.617188 C 9.660156 17.136719 8.9375 17.410156 8.09375 17.445312 C 8.523438 17.929688 8.964844 18.398438 9.414062 18.855469 C 9.863281 19.3125 10.3125 19.765625 10.761719 20.214844 C 10.414062 20.527344 10.023438 20.917969 9.582031 21.394531 C 9.140625 21.871094 8.6875 21.96875 8.222656 21.691406 C 7.722656 21.398438 7.234375 21.015625 6.757812 20.539062 L 6.046875 19.828125 L 4.792969 21.148438 C 4.792969 21.148438 4.054688 21.839844 2.578125 23.21875 C 1.921875 23.667969 1.269531 23.570312 0.621094 22.921875 C -0.0234375 22.273438 -0.132812 21.613281 0.300781 20.941406 C 0.746094 20.234375 1.289062 19.609375 1.917969 19.0625 C 2.546875 18.519531 3.121094 17.910156 3.640625 17.238281 C 3.257812 16.808594 2.800781 16.332031 2.265625 15.816406 C 1.730469 15.296875 1.472656 14.863281 1.488281 14.519531 C 1.523438 14.140625 1.804688 13.699219 2.332031 13.199219 L 3.121094 12.449219 L 4.144531 13.472656 C 4.144531 13.472656 4.71875 14.035156 5.867188 15.167969 C 5.882812 14.304688 6.175781 13.585938 6.746094 13.019531 C 7.316406 12.449219 7.859375 11.871094 8.378906 11.28125 C 7.757812 10.644531 7.128906 10 6.5 9.355469 C 5.871094 8.707031 5.234375 8.0625 4.597656 7.425781 C 3.628906 6.527344 2.949219 5.449219 2.550781 4.1875 C 2.15625 2.929688 1.757812 1.695312 1.359375 0.484375 Z M 1.359375 0.484375 "/>
</g>
</svg>
