<?xml version="1.0" encoding="UTF-8"?>
<svg xmlns="http://www.w3.org/2000/svg" xmlns:xlink="http://www.w3.org/1999/xlink" width="24px" height="19px" viewBox="0 0 24 19" version="1.1">
<g id="surface1">
<path style=" stroke:none;fill-rule:nonzero;fill:rgb(0%,0%,0%);fill-opacity:1;" d="M 6.117188 18.914062 C 5.304688 18.773438 0.210938 17.597656 0.078125 17.515625 C -0.101562 17.402344 0.101562 17.253906 0.554688 17.171875 C 0.957031 17.09375 3.84375 16.347656 5.054688 16.011719 C 5.582031 15.859375 5.816406 15.519531 5.632812 15.167969 C 5.523438 14.96875 2.980469 12.703125 0.675781 10.761719 C -0.0195312 10.175781 -0.164062 9.945312 0.167969 9.945312 C 0.265625 9.945312 1.832031 10.550781 3.644531 11.292969 C 5.457031 12.03125 7.035156 12.617188 7.15625 12.59375 C 7.648438 12.5 7.480469 11.878906 5.933594 8.03125 C 4.46875 4.375 4.230469 3.632812 4.597656 3.839844 C 4.695312 3.894531 5.933594 5.507812 7.363281 7.425781 C 9.964844 10.929688 10.195312 11.171875 10.542969 10.742188 C 10.628906 10.640625 10.90625 8.472656 11.214844 5.507812 C 11.753906 0.339844 11.804688 -0.00390625 11.996094 -0.00390625 C 12.167969 -0.00390625 12.207031 0.265625 12.761719 5.5625 C 13.3125 10.789062 13.363281 11.035156 13.871094 10.867188 C 13.996094 10.828125 15.277344 9.210938 16.722656 7.277344 C 18.167969 5.339844 19.390625 3.761719 19.453125 3.761719 C 19.6875 3.761719 19.488281 4.367188 18.101562 7.832031 C 17.304688 9.832031 16.601562 11.625 16.546875 11.816406 C 16.417969 12.234375 16.585938 12.621094 16.894531 12.621094 C 17.011719 12.621094 18.511719 12.039062 20.222656 11.332031 C 23.308594 10.054688 23.996094 9.820312 23.996094 10.039062 C 23.996094 10.101562 23.175781 10.859375 22.171875 11.722656 C 18.199219 15.136719 18.121094 15.21875 18.347656 15.644531 C 18.492188 15.921875 18.585938 15.953125 21.476562 16.679688 C 24.136719 17.355469 24.066406 17.332031 23.925781 17.46875 C 23.761719 17.625 19.757812 18.550781 17.386719 18.980469 C 16.804688 19.085938 16.730469 18.929688 16.730469 17.507812 C 16.726562 16.429688 16.679688 16.078125 16.453125 15.5 C 16.0625 14.519531 15.085938 13.421875 14.054688 12.957031 C 12.664062 12.332031 11.109375 12.371094 9.929688 12.957031 C 8.039062 13.898438 7.074219 15.632812 7.234375 17.804688 C 7.304688 18.710938 7.285156 18.804688 7.074219 18.929688 C 6.75 19.117188 6.386719 18.960938 6.105469 18.917969 Z M 6.117188 18.914062 "/>
</g>
</svg>
