<?xml version="1.0" encoding="UTF-8"?>
<svg xmlns="http://www.w3.org/2000/svg" xmlns:xlink="http://www.w3.org/1999/xlink" width="18px" height="24px" viewBox="0 0 18 23" version="1.1">
<g id="surface1">
<path style=" stroke:none;fill-rule:nonzero;fill:rgb(0%,0%,0%);fill-opacity:1;" d="M 7.359375 22.960938 C 7.332031 22.933594 7.332031 22.847656 7.363281 22.765625 C 7.394531 22.6875 8.539062 20.929688 9.90625 18.859375 C 11.277344 16.792969 12.445312 15.007812 12.503906 14.898438 C 12.683594 14.582031 12.59375 14.167969 12.324219 14.023438 C 12.113281 13.910156 11.601562 13.972656 6.519531 14.738281 C 3.453125 15.199219 0.839844 15.578125 0.707031 15.574219 C 0.328125 15.574219 -0.00390625 15.265625 -0.00390625 14.917969 C -0.00390625 14.550781 0.40625 13.785156 2.882812 9.554688 C 5.167969 5.65625 5.128906 5.808594 3.914062 5.566406 C 3.515625 5.488281 3.347656 5.214844 3.449219 4.824219 C 3.535156 4.488281 5.832031 0.863281 6.183594 0.511719 C 6.351562 0.335938 6.644531 0.152344 6.832031 0.0976562 C 7.265625 -0.0273438 16.621094 -0.0390625 16.957031 0.0820312 C 17.289062 0.203125 17.402344 0.457031 17.261719 0.765625 C 17.199219 0.90625 14.921875 3.246094 12.199219 5.964844 C 9.476562 8.679688 7.199219 10.992188 7.136719 11.105469 C 7.046875 11.269531 7.050781 11.339844 7.152344 11.46875 C 7.269531 11.625 7.394531 11.605469 10.5 11.003906 C 12.277344 10.660156 13.882812 10.378906 14.070312 10.378906 C 14.515625 10.378906 14.699219 10.570312 14.949219 11.296875 C 15.414062 12.65625 15.5625 12.761719 16.855469 12.671875 C 17.816406 12.605469 18.078125 12.699219 17.980469 13.070312 C 17.949219 13.1875 17.226562 13.9375 16.371094 14.746094 C 15.515625 15.550781 13.699219 17.265625 12.335938 18.550781 C 7.472656 23.148438 7.519531 23.109375 7.359375 22.957031 Z M 7.359375 22.960938 "/>
</g>
</svg>
