<?xml version="1.0" encoding="UTF-8"?>
<svg xmlns="http://www.w3.org/2000/svg" xmlns:xlink="http://www.w3.org/1999/xlink" width="24px" height="19px" viewBox="0 0 24 19" version="1.1">
<g id="surface1">
<path style=" stroke:none;fill-rule:nonzero;fill:rgb(0%,0%,0%);fill-opacity:1;" d="M 8.761719 18.945312 C 5.476562 18.625 2.25 17.769531 0.902344 16.867188 C -0.519531 15.917969 -0.300781 14.929688 1.828125 12.648438 C 3.742188 10.605469 4.621094 8.890625 5.859375 4.792969 C 6.675781 2.101562 7.429688 0.414062 7.9375 0.125 C 8.722656 -0.316406 9.265625 0.324219 10.304688 2.910156 C 11.410156 5.664062 12.355469 7.332031 13.523438 8.589844 C 13.875 8.96875 14.222656 9.230469 14.371094 9.230469 C 14.671875 9.230469 15.109375 8.699219 15.898438 7.390625 C 16.53125 6.332031 17.019531 5.996094 17.761719 6.113281 C 18.445312 6.222656 18.964844 6.910156 19.574219 8.523438 C 19.855469 9.277344 20.269531 10.253906 20.484375 10.6875 C 20.890625 11.503906 21.914062 12.992188 22.074219 12.996094 C 22.257812 13 23.636719 14.402344 23.828125 14.78125 C 24.40625 15.914062 23.554688 16.921875 21.367188 17.675781 C 18.746094 18.578125 16.371094 18.945312 12.667969 19.003906 C 11.148438 19.027344 9.394531 19 8.765625 18.941406 Z M 8.761719 18.945312 "/>
</g>
</svg>
