<?xml version="1.0" encoding="UTF-8"?>
<svg xmlns="http://www.w3.org/2000/svg" xmlns:xlink="http://www.w3.org/1999/xlink" width="19px" height="24px" viewBox="0 0 19 24" version="1.1">
<g id="surface1">
<path style=" stroke:none;fill-rule:nonzero;fill:rgb(0%,0%,0%);fill-opacity:1;" d="M 9.519531 23.902344 C 9.289062 23.800781 9.210938 23.703125 9.210938 23.523438 C 9.210938 23.21875 9.464844 23.054688 10.25 22.855469 C 10.585938 22.773438 10.917969 22.65625 10.984375 22.597656 C 11.203125 22.417969 11.128906 22.074219 10.820312 21.8125 C 10.089844 21.199219 8.679688 21.128906 7.164062 21.640625 C 5.996094 22.03125 5.503906 22.085938 4.644531 21.90625 C 3.546875 21.679688 2.496094 21.113281 1.667969 20.304688 C 0.839844 19.488281 0.429688 18.808594 0.175781 17.804688 C -0.261719 16.101562 0.132812 14.355469 1.183594 13.347656 C 1.886719 12.675781 3.1875 12.296875 3.5 12.671875 C 3.597656 12.789062 3.546875 12.855469 3.191406 13.070312 C 1.957031 13.816406 1.847656 15.511719 2.957031 16.683594 C 3.886719 17.671875 5.058594 18.046875 7.179688 18.050781 C 9.648438 18.050781 10.617188 18.253906 11.554688 18.96875 C 12.058594 19.355469 12.609375 20.089844 12.742188 20.550781 C 12.902344 21.105469 12.988281 21.207031 13.222656 21.082031 C 13.511719 20.925781 13.769531 20.257812 13.773438 19.65625 C 13.777344 18.28125 12.839844 16.910156 11.433594 16.238281 C 10.882812 15.972656 10.582031 15.910156 8.324219 15.574219 C 7.59375 15.46875 7.269531 15.324219 6.78125 14.894531 C 6.40625 14.566406 6.167969 14.167969 6.167969 13.875 C 6.167969 13.59375 6.265625 13.574219 6.898438 13.746094 C 7.367188 13.871094 7.523438 13.878906 7.753906 13.785156 C 8.171875 13.609375 8.398438 13.160156 8.398438 12.488281 C 8.402344 11.144531 7.285156 10.230469 4.789062 9.539062 C 3.414062 9.15625 2.183594 8.226562 1.671875 7.179688 C 1.125 6.070312 0.96875 4.539062 1.273438 3.363281 C 1.839844 1.183594 3.871094 -0.148438 6.375 0.0117188 C 7.5 0.0859375 8.359375 0.457031 8.234375 0.8125 C 8.222656 0.851562 7.785156 0.886719 7.261719 0.894531 C 6.628906 0.902344 6.164062 0.960938 5.882812 1.066406 C 4.5 1.585938 3.921875 2.679688 4.308594 4.035156 C 4.542969 4.84375 5.214844 5.457031 6.75 6.25 C 8.28125 7.042969 8.332031 7.082031 9.585938 8.28125 C 10.789062 9.4375 11.222656 9.703125 11.886719 9.703125 C 13.421875 9.703125 13.9375 7.839844 12.777344 6.46875 C 12.453125 6.085938 12.195312 5.945312 10.875 5.453125 C 10.015625 5.132812 9.824219 5.027344 9.796875 4.851562 C 9.738281 4.441406 10.429688 4.351562 11.664062 4.605469 C 13.097656 4.898438 14.667969 5.824219 16.011719 7.164062 C 17.296875 8.441406 18.082031 9.832031 18.570312 11.691406 C 19.695312 15.953125 18.5625 20.199219 15.695312 22.476562 C 14.988281 23.039062 13.8125 23.601562 12.917969 23.804688 C 11.925781 24.03125 9.925781 24.089844 9.519531 23.902344 Z M 9.519531 23.902344 "/>
</g>
</svg>
