<?xml version="1.0" encoding="UTF-8"?>
<svg xmlns="http://www.w3.org/2000/svg" xmlns:xlink="http://www.w3.org/1999/xlink" width="17px" height="24px" viewBox="0 0 17 24" version="1.1">
<g id="surface1">
<path style=" stroke:none;fill-rule:nonzero;fill:rgb(0%,0%,0%);fill-opacity:1;" d="M 1.925781 23.851562 C 1.5 23.71875 1.339844 23.511719 1.425781 23.195312 C 1.496094 22.921875 2.136719 22.710938 3.125 22.632812 C 3.625 22.59375 4.199219 22.5 4.402344 22.429688 C 5.457031 22.046875 6.488281 21.261719 6.75 20.644531 C 6.816406 20.480469 6.945312 19.40625 7.054688 18.105469 C 7.230469 16.023438 7.234375 15.835938 7.109375 15.695312 C 7.03125 15.609375 6.410156 15.261719 5.722656 14.921875 C 4.628906 14.375 4.398438 14.222656 3.820312 13.65625 C 3.226562 13.070312 3.128906 12.925781 2.761719 12.078125 C 2.3125 11.046875 1.542969 8.78125 1.308594 7.804688 C 1.167969 7.21875 1.117188 7.140625 0.625 6.660156 C 0.226562 6.273438 0.078125 6.066406 0.0351562 5.828125 C -0.0703125 5.257812 0.0546875 4.914062 0.523438 4.476562 L 0.957031 4.078125 L 0.894531 2.355469 C 0.835938 0.683594 0.839844 0.625 1.011719 0.40625 C 1.113281 0.28125 1.335938 0.136719 1.507812 0.0898438 C 1.941406 -0.03125 15.058594 -0.03125 15.492188 0.0898438 C 15.664062 0.136719 15.886719 0.28125 15.988281 0.40625 C 16.164062 0.628906 16.167969 0.679688 16.105469 2.207031 C 16.070312 3.066406 16.046875 3.84375 16.050781 3.933594 C 16.054688 4.023438 16.25 4.269531 16.484375 4.484375 C 16.945312 4.914062 17.070312 5.257812 16.964844 5.828125 C 16.921875 6.066406 16.773438 6.273438 16.371094 6.664062 C 15.878906 7.144531 15.828125 7.226562 15.6875 7.808594 C 15.445312 8.8125 14.679688 11.066406 14.238281 12.078125 C 13.871094 12.925781 13.773438 13.070312 13.179688 13.65625 C 12.601562 14.222656 12.371094 14.375 11.277344 14.921875 C 10.589844 15.261719 9.96875 15.609375 9.890625 15.695312 C 9.765625 15.832031 9.769531 16.023438 9.945312 18.113281 C 10.050781 19.390625 10.183594 20.507812 10.25 20.660156 C 10.496094 21.257812 11.550781 22.050781 12.597656 22.425781 C 12.800781 22.5 13.378906 22.59375 13.886719 22.636719 C 14.886719 22.71875 15.503906 22.925781 15.574219 23.195312 C 15.660156 23.519531 15.5 23.71875 15.039062 23.855469 C 14.390625 24.046875 2.554688 24.042969 1.925781 23.847656 Z M 1.925781 23.851562 "/>
</g>
</svg>
