<?xml version="1.0" encoding="UTF-8"?>
<svg xmlns="http://www.w3.org/2000/svg" xmlns:xlink="http://www.w3.org/1999/xlink" width="24px" height="21px" viewBox="0 0 23 21" version="1.1">
<g id="surface1">
<path style=" stroke:none;fill-rule:nonzero;fill:rgb(0%,0%,0%);fill-opacity:1;" d="M 7.804688 20.527344 C 7.296875 20.007812 7.238281 19.601562 7.53125 18.738281 C 7.800781 17.957031 8.167969 17.550781 9.332031 16.730469 C 9.925781 16.320312 10.960938 15.550781 11.632812 15.027344 C 12.8125 14.117188 13.40625 13.734375 16.945312 11.640625 C 19.523438 10.113281 23.003906 8.691406 23.003906 9.160156 C 23.003906 9.386719 22.175781 9.996094 21.015625 10.621094 C 19.523438 11.421875 15.339844 14.328125 14.09375 15.425781 C 13.113281 16.292969 11.8125 17.746094 10.445312 19.507812 C 9.207031 21.105469 8.59375 21.339844 7.804688 20.53125 Z M 2.761719 19.078125 C 2.4375 18.722656 2.367188 18.257812 2.527344 17.488281 C 2.726562 16.496094 2.695312 15.515625 2.449219 14.996094 C 2.273438 14.625 2.074219 14.46875 1.269531 14.066406 C 0.734375 13.796875 0.230469 13.484375 0.144531 13.367188 C -0.195312 12.890625 0.0742188 11.699219 0.765625 10.628906 C 1.339844 9.734375 3.453125 7.296875 4.722656 6.054688 C 6.035156 4.769531 6.871094 4.183594 7.902344 3.824219 C 8.683594 3.554688 9.132812 3.335938 11.667969 2.023438 C 14.660156 0.46875 17.648438 -0.429688 17.648438 0.214844 C 17.648438 0.324219 17.058594 0.652344 16.039062 1.105469 C 13.816406 2.09375 13.449219 2.316406 11.824219 3.667969 C 11.042969 4.320312 9.804688 5.320312 9.074219 5.886719 C 7.679688 6.96875 6.613281 8.066406 5.507812 9.550781 C 4.085938 11.460938 3.9375 11.863281 4.363281 12.582031 C 4.488281 12.796875 4.589844 13.125 4.59375 13.324219 C 4.597656 13.789062 4.816406 13.640625 5.03125 13.46875 C 5.351562 13.210938 5.910156 12.6875 6.835938 11.800781 C 9.277344 9.441406 12.535156 6.984375 14.789062 5.796875 C 16.246094 5.027344 20.15625 3.378906 21.265625 3.0625 C 22.285156 2.769531 22.878906 2.742188 22.878906 2.984375 C 22.878906 3.191406 22.597656 3.367188 20.171875 4.675781 C 16.828125 6.46875 15.453125 7.492188 12.8125 10.136719 C 11.386719 11.570312 8.851562 13.921875 7.054688 15.476562 C 6.847656 15.660156 6.097656 16.492188 5.398438 17.332031 C 4.691406 18.175781 3.984375 18.96875 3.820312 19.101562 C 3.4375 19.410156 3.046875 19.40625 2.757812 19.089844 Z M 2.761719 19.078125 "/>
</g>
</svg>
