<?xml version="1.0" standalone="no"?>
<!DOCTYPE svg PUBLIC "-//W3C//DTD SVG 20010904//EN"
 "http://www.w3.org/TR/2001/REC-SVG-20010904/DTD/svg10.dtd">
<svg version="1.0" xmlns="http://www.w3.org/2000/svg"
 width="20.000000pt" height="24.000000pt" viewBox="0 0 20.000000 24.000000"
 preserveAspectRatio="xMidYMid meet">

<g transform="translate(0.000000,24.000000) scale(0.100000,-0.100000)"
fill="#000000" stroke="none">
<path d="M49 211 c-21 -17 -25 -30 -29 -110 l-5 -91 85 0 85 0 -5 91 c-4 80
-8 93 -29 110 -13 10 -36 19 -51 19 -15 0 -38 -9 -51 -19z m69 -48 c12 -12 13
-18 4 -21 -6 -2 -12 -17 -12 -33 0 -16 -4 -29 -10 -29 -5 0 -10 13 -10 29 0
16 -5 31 -12 33 -9 3 -8 9 2 21 19 20 18 20 38 0z"/>
</g>
</svg>
