<?xml version="1.0" encoding="UTF-8"?>
<svg xmlns="http://www.w3.org/2000/svg" xmlns:xlink="http://www.w3.org/1999/xlink" width="24px" height="24px" viewBox="0 0 24 24" version="1.1">
<g id="surface1">
<path style=" stroke:none;fill-rule:nonzero;fill:rgb(0%,0%,0%);fill-opacity:1;" d="M 9.332031 21.625 C 7.359375 19.652344 6.960938 19.195312 6.960938 18.910156 C 6.960938 18.632812 7.246094 18.273438 8.460938 17.039062 C 9.871094 15.601562 9.960938 15.484375 9.960938 15.035156 C 9.960938 14.410156 9.582031 14.039062 8.945312 14.039062 C 8.523438 14.039062 8.378906 14.148438 6.960938 15.539062 C 5.726562 16.753906 5.367188 17.039062 5.089844 17.039062 C 4.804688 17.039062 4.347656 16.640625 2.375 14.667969 C 0.582031 12.875 0 12.222656 0 12 C 0 11.777344 0.582031 11.125 2.375 9.332031 C 4.347656 7.359375 4.804688 6.960938 5.089844 6.960938 C 5.367188 6.960938 5.726562 7.246094 6.960938 8.460938 C 8.398438 9.871094 8.515625 9.960938 8.964844 9.960938 C 9.589844 9.960938 9.960938 9.582031 9.960938 8.945312 C 9.960938 8.523438 9.851562 8.378906 8.460938 6.960938 C 7.246094 5.726562 6.960938 5.367188 6.960938 5.089844 C 6.960938 4.804688 7.359375 4.347656 9.332031 2.375 C 11.125 0.582031 11.777344 0 12 0 C 12.222656 0 12.875 0.582031 14.667969 2.375 C 16.640625 4.347656 17.039062 4.804688 17.039062 5.089844 C 17.039062 5.367188 16.753906 5.726562 15.539062 6.960938 C 14.128906 8.398438 14.039062 8.515625 14.039062 8.964844 C 14.039062 9.589844 14.417969 9.960938 15.054688 9.960938 C 15.476562 9.960938 15.621094 9.851562 17.039062 8.460938 C 18.273438 7.246094 18.632812 6.960938 18.910156 6.960938 C 19.195312 6.960938 19.652344 7.359375 21.625 9.332031 C 23.417969 11.125 24 11.777344 24 12 C 24 12.222656 23.417969 12.875 21.625 14.667969 C 19.652344 16.640625 19.195312 17.039062 18.910156 17.039062 C 18.632812 17.039062 18.273438 16.753906 17.039062 15.539062 C 15.601562 14.128906 15.484375 14.039062 15.035156 14.039062 C 14.410156 14.039062 14.039062 14.417969 14.039062 15.054688 C 14.039062 15.476562 14.148438 15.621094 15.539062 17.039062 C 16.753906 18.273438 17.039062 18.632812 17.039062 18.910156 C 17.039062 19.195312 16.640625 19.652344 14.667969 21.625 C 12.875 23.417969 12.222656 24 12 24 C 11.777344 24 11.125 23.417969 9.332031 21.625 Z M 12 13.078125 L 16.136719 13.078125 L 17.519531 14.460938 L 18.902344 15.839844 L 20.820312 13.917969 L 22.738281 12 L 20.820312 10.082031 L 18.902344 8.160156 L 17.519531 9.539062 L 16.136719 10.921875 L 7.863281 10.921875 L 6.480469 9.539062 L 5.097656 8.160156 L 3.179688 10.082031 L 1.261719 12 L 3.179688 13.917969 L 5.097656 15.839844 L 6.480469 14.460938 L 7.863281 13.078125 Z M 12 13.078125 "/>
</g>
</svg>
