<?xml version="1.0" encoding="UTF-8"?>
<svg xmlns="http://www.w3.org/2000/svg" xmlns:xlink="http://www.w3.org/1999/xlink" width="12px" height="24px" viewBox="0 0 12 24" version="1.1">
<g id="surface1">
<path style=" stroke:none;fill-rule:nonzero;fill:rgb(0%,0%,0%);fill-opacity:1;" d="M 11.875 9.214844 C 11.773438 6.550781 11.542969 5.539062 11.390625 5.539062 C 11.234375 5.539062 11.1875 7.015625 10.984375 8.316406 C 10.78125 9.617188 10.421875 11.09375 10.421875 11.09375 L 9.507812 10.746094 C 9.507812 10.746094 9.25 8.863281 9.148438 6.609375 C 9.050781 4.355469 8.972656 2.382812 8.691406 2.382812 C 8.414062 2.382812 8.363281 4.234375 8.261719 6.640625 C 8.15625 9.039062 7.800781 10.371094 7.800781 10.371094 L 6.964844 10.253906 C 6.964844 10.253906 6.558594 8.171875 6.402344 1.808594 C 6.367188 0.300781 6 0 6 0 C 6 0 5.632812 0.300781 5.59375 1.808594 C 5.441406 8.171875 5.035156 10.253906 5.035156 10.253906 L 4.195312 10.371094 C 4.195312 10.371094 3.839844 9.039062 3.738281 6.640625 C 3.636719 4.234375 3.585938 2.382812 3.308594 2.382812 C 3.027344 2.382812 2.949219 4.355469 2.84375 6.609375 C 2.746094 8.863281 2.492188 10.746094 2.492188 10.746094 L 1.578125 11.09375 C 1.578125 11.09375 1.21875 9.617188 1.015625 8.316406 C 0.8125 7.015625 0.761719 5.539062 0.609375 5.539062 C 0.457031 5.539062 0.226562 6.550781 0.125 9.214844 C 0.0234375 11.875 0 12.394531 0 12.394531 C 0 12.394531 3.003906 13.667969 4.171875 16.96875 C 5.339844 20.265625 5.636719 23.128906 5.648438 23.445312 C 5.660156 23.941406 6 24.003906 6 24.003906 C 6 24.003906 6.292969 23.941406 6.351562 23.445312 C 6.390625 23.132812 6.660156 20.265625 7.828125 16.96875 C 8.996094 13.667969 12 12.394531 12 12.394531 C 12 12.394531 11.976562 11.875 11.875 9.214844 "/>
</g>
</svg>
